<?xml version="1.0" encoding="UTF-8" standalone="no"?>
<svg
   version="1.0"
   width="400"
   height="400"
   viewBox="0 0 1979.000000 2048.000000"
   preserveAspectRatio="xMidYMid meet"
   xmlns="http://www.w3.org/2000/svg">
  <metadata>
Created by potrace 1.16, written by Peter Selinger 2001-2019
  </metadata>
<defs>
  <linearGradient id="warm-ember" gradientUnits="objectBoundingBox"
    x1="0" y1="0" x2="1" y2="1">
    <stop offset="0%" stop-color="#c87818"/>
    <stop offset="30%" stop-color="#e8a020"/>
    <stop offset="60%" stop-color="#f0c860"/>
    <stop offset="100%" stop-color="#e8a020"/>
  </linearGradient>
  <linearGradient id="cool-drift" gradientUnits="objectBoundingBox"
    x1="0" y1="1" x2="1" y2="0">
    <stop offset="0%" stop-color="#155d98"/>
    <stop offset="30%" stop-color="#1a6baa"/>
    <stop offset="60%" stop-color="#2080c0"/>
    <stop offset="100%" stop-color="#1a6baa"/>
  </linearGradient>
</defs>
  <g transform="translate(0.000000,2048.000000) scale(0.100000,-0.100000)" fill="url(#warm-ember)" stroke="none">
    <path d="M9693 19380 c-63 -20 -68 -40 -67 -265 1 -110 7 -290 14 -400 10
-148 11 -301 5 -590 -5 -214 -9 -872 -9 -1462 -1 -1071 -1 -1072 -22 -1100
-12 -16 -45 -37 -80 -50 -87 -34 -199 -154 -265 -285 -87 -172 -114 -315 -85
-455 25 -122 81 -233 168 -333 91 -104 89 -103 176 -145 118 -57 107 54 107
-1045 0 -890 -1 -957 -17 -987 -21 -38 -69 -76 -124 -99 -21 -9 -57 -29 -79
-44 -114 -77 -152 -100 -167 -100 -10 0 -58 -36 -108 -80 -50 -44 -97 -80
-104 -80 -8 0 -32 -15 -54 -32 -22 -18 -67 -48 -99 -66 -33 -18 -83 -51 -113
-74 -29 -22 -71 -46 -92 -54 -22 -7 -51 -22 -66 -33 -15 -10 -51 -30 -79 -45
-74 -37 -102 -83 -112 -180 -13 -139 15 -323 56 -363 31 -32 63 -27 203 34
101 44 311 173 341 209 8 10 47 32 86 50 40 19 106 58 145 88 40 29 89 62 108
71 19 10 72 46 117 81 45 35 95 70 111 78 16 8 35 22 42 31 8 9 70 46 139 81
165 85 250 132 280 155 13 11 28 19 34 19 6 0 33 17 61 39 28 21 67 46 86 56
19 9 49 29 65 44 17 15 62 47 100 71 39 24 79 52 90 61 18 16 72 48 196 118
50 28 125 81 173 122 17 14 45 33 61 42 17 8 48 29 70 47 22 17 78 52 125 77
47 26 105 62 130 80 136 103 250 175 298 190 47 15 61 26 100 78 25 33 56 72
70 87 14 15 21 31 17 38 -14 23 -128 90 -164 96 -20 3 -75 19 -123 35 -61 20
-106 29 -152 29 -59 0 -77 -5 -154 -44 -48 -25 -112 -63 -142 -85 -30 -22 -98
-66 -150 -97 -52 -31 -117 -71 -145 -89 -27 -18 -64 -38 -82 -45 -18 -7 -38
-19 -45 -28 -7 -8 -40 -28 -73 -44 -137 -68 -183 -95 -215 -126 -53 -53 -75
-65 -99 -52 -24 12 -26 19 -40 155 -23 213 -31 414 -31 780 0 481 9 640 41
691 23 38 70 64 115 64 20 0 49 22 120 91 51 50 97 103 102 118 82 239 77 215
77 371 0 163 -8 194 -81 341 -33 67 -60 103 -126 168 -46 45 -99 91 -119 101
-43 23 -107 91 -113 122 -8 36 -20 1300 -20 2068 -1 542 2 707 12 750 13 50
34 279 32 342 -1 44 21 56 122 62 292 20 562 6 824 -43 127 -24 266 -41 344
-41 57 0 124 -19 166 -46 16 -11 62 -19 132 -24 79 -6 125 -15 168 -33 32 -14
104 -32 159 -41 55 -10 127 -28 160 -41 33 -13 94 -29 135 -35 42 -7 93 -22
115 -35 23 -13 78 -33 122 -44 45 -11 103 -31 130 -44 26 -13 71 -29 98 -36
28 -7 68 -23 90 -36 22 -13 66 -30 97 -38 31 -8 72 -26 91 -41 18 -14 55 -32
81 -40 27 -8 65 -26 86 -40 21 -13 63 -31 94 -40 32 -8 69 -23 83 -33 48 -34
68 -43 98 -43 17 0 58 -13 93 -30 34 -16 84 -36 110 -44 26 -7 73 -28 106 -45
32 -17 68 -31 81 -31 12 0 42 -13 66 -30 24 -16 64 -36 89 -45 30 -10 51 -25
61 -44 13 -23 26 -30 64 -35 35 -6 55 -16 79 -41 17 -18 43 -35 58 -39 14 -3
40 -17 56 -31 17 -14 47 -32 69 -41 21 -9 49 -26 63 -38 14 -13 45 -31 70 -40
24 -10 61 -33 82 -52 21 -19 42 -34 47 -34 6 0 30 -17 54 -37 24 -21 59 -47
77 -58 19 -11 54 -33 80 -50 26 -16 68 -43 94 -60 27 -16 65 -44 85 -61 20
-17 46 -35 59 -38 12 -4 30 -18 38 -31 9 -13 39 -38 67 -55 104 -62 179 -118
270 -204 34 -32 80 -71 102 -85 69 -44 115 -83 204 -169 138 -133 160 -152
170 -152 6 0 14 -15 19 -32 5 -20 18 -38 33 -45 49 -25 160 -132 202 -197 10
-14 24 -26 32 -26 7 0 38 -25 67 -56 29 -30 70 -73 91 -95 20 -22 37 -46 37
-54 0 -8 12 -22 28 -32 32 -20 99 -89 115 -118 11 -21 77 -101 134 -163 18
-19 35 -44 39 -56 4 -11 40 -53 80 -93 41 -39 74 -77 74 -82 0 -14 58 -95 105
-146 45 -50 76 -95 111 -160 15 -27 42 -67 60 -88 19 -20 34 -43 34 -50 0 -8
12 -24 26 -38 15 -13 35 -44 45 -68 11 -24 33 -59 49 -78 17 -18 30 -40 30
-48 0 -8 13 -29 29 -47 15 -18 36 -49 46 -68 9 -19 29 -47 42 -62 15 -15 29
-47 34 -73 5 -29 20 -60 39 -81 22 -26 30 -45 30 -73 0 -36 17 -64 36 -60 26
4 37 -5 54 -47 11 -25 29 -57 40 -71 11 -14 27 -48 35 -75 8 -27 26 -63 39
-79 14 -16 30 -49 36 -72 6 -23 26 -73 45 -112 60 -121 97 -208 111 -259 7
-26 24 -65 37 -85 14 -20 33 -63 42 -96 9 -33 27 -78 40 -100 13 -23 31 -70
40 -105 9 -35 27 -84 39 -109 13 -25 29 -71 36 -101 7 -30 22 -73 33 -95 11
-22 30 -88 43 -147 13 -61 33 -126 48 -150 15 -26 28 -67 32 -103 4 -33 19
-90 35 -127 16 -36 29 -76 29 -87 0 -31 38 -179 60 -232 10 -25 26 -99 34
-165 9 -76 23 -137 37 -169 22 -48 30 -120 42 -383 2 -36 8 -49 39 -77 45 -42
82 -52 234 -67 145 -14 175 -8 218 46 30 37 31 41 31 134 -1 140 -31 370 -56
429 -12 27 -27 97 -34 163 -8 63 -30 176 -49 250 -18 74 -37 160 -41 190 -4
30 -18 74 -32 98 -13 24 -29 73 -35 110 -6 37 -20 87 -33 112 -12 25 -30 81
-39 125 -9 44 -30 108 -46 143 -16 34 -32 90 -36 123 -5 42 -14 69 -30 88 -31
37 -44 73 -44 120 0 23 -12 60 -29 93 -16 30 -37 81 -46 114 -10 32 -26 74
-37 92 -11 18 -28 60 -38 93 -11 34 -31 78 -45 99 -14 21 -32 61 -40 89 -7 28
-24 70 -38 94 -14 23 -32 65 -40 92 -8 28 -29 76 -46 109 -17 32 -31 63 -31
70 0 7 -12 28 -26 47 -14 19 -39 61 -56 94 -77 155 -96 189 -109 199 -15 11
-59 84 -108 182 -14 28 -38 65 -53 82 -14 17 -29 45 -33 61 -3 15 -18 39 -32
52 -14 13 -35 47 -48 75 -13 28 -28 55 -34 59 -7 4 -23 31 -35 60 -13 29 -29
56 -35 60 -7 3 -22 29 -36 56 -23 49 -39 70 -122 169 -24 28 -43 56 -43 63 0
7 -17 33 -37 59 -21 25 -56 70 -78 99 -22 29 -57 70 -77 91 -21 21 -38 43 -38
47 0 13 -54 77 -201 236 -71 77 -142 156 -159 175 -16 19 -45 53 -65 75 -19
22 -97 112 -173 200 -144 166 -259 281 -376 375 -129 105 -155 125 -196 155
-22 17 -93 81 -157 144 -64 62 -136 125 -159 140 -41 25 -132 104 -219 189
-25 23 -49 42 -54 42 -6 0 -43 29 -83 65 -40 36 -93 74 -117 86 -25 11 -53 31
-63 44 -10 13 -41 31 -68 40 -28 9 -55 25 -60 36 -6 10 -27 27 -48 38 -20 10
-46 29 -57 41 -11 12 -43 33 -71 45 -28 13 -55 28 -59 35 -4 6 -28 21 -54 31
-25 11 -59 33 -76 48 -16 15 -44 33 -62 40 -17 7 -41 24 -54 37 -13 14 -46 31
-75 40 -28 8 -61 26 -74 39 -13 14 -29 25 -36 25 -6 0 -35 16 -63 35 -28 19
-58 35 -66 35 -23 0 -55 18 -98 56 -21 20 -48 34 -63 34 -30 0 -60 14 -94 45
-14 13 -68 39 -120 59 -52 20 -126 52 -165 71 -38 19 -81 37 -95 40 -14 4 -61
26 -105 50 -44 23 -96 46 -115 50 -19 4 -62 22 -95 40 -33 18 -81 36 -108 40
-28 4 -61 18 -82 35 -25 20 -54 30 -106 38 -46 7 -84 20 -107 35 -24 17 -63
29 -110 36 -41 6 -95 22 -120 35 -26 13 -87 31 -136 41 -49 9 -111 27 -138 41
-26 13 -60 24 -75 23 -30 -2 -115 24 -148 45 -11 7 -31 16 -45 19 -121 29
-159 36 -183 37 -16 0 -57 11 -92 25 -42 17 -88 27 -137 29 -50 2 -106 15
-180 40 -59 20 -127 36 -150 36 -24 0 -78 7 -121 15 -43 8 -103 15 -132 15
-29 0 -72 7 -96 17 -33 12 -84 17 -209 18 -91 2 -217 10 -280 19 -71 10 -176
16 -275 16 -88 -1 -200 3 -250 9 -49 5 -97 9 -105 9 -8 0 -89 2 -180 6 -101 3
-178 2 -197 -4z m220 -4261 c34 -9 42 -19 38 -43 -1 -4 3 -14 10 -22 9 -11 14
-11 33 1 41 27 62 -9 72 -128 8 -107 -10 -168 -55 -187 -16 -6 -39 -22 -51
-36 -13 -13 -38 -29 -57 -35 -31 -10 -41 -8 -99 22 -69 35 -139 102 -150 144
-3 14 -3 50 1 80 5 44 16 67 51 115 76 101 111 116 207 89z" id="orange0"/>
    <path d="M8323 19280 c-22 -5 -59 -18 -80 -28 -41 -21 -77 -30 -154 -36 -25
-2 -59 -11 -75 -19 -33 -17 -159 -37 -234 -37 -31 0 -61 -7 -83 -20 -21 -13
-67 -24 -115 -30 -45 -5 -98 -18 -119 -28 -21 -11 -58 -22 -81 -26 -24 -4 -61
-15 -83 -26 -21 -11 -54 -20 -72 -20 -19 0 -56 -10 -83 -22 -32 -14 -75 -22
-123 -24 -47 -3 -80 -9 -90 -19 -48 -43 -149 -57 -250 -33 -39 9 -53 9 -65 -1
-14 -11 -14 -15 0 -36 23 -35 -3 -55 -71 -55 -43 0 -60 -5 -84 -26 -34 -28
-107 -54 -152 -54 -17 0 -42 -12 -64 -31 -19 -17 -61 -39 -93 -49 -33 -10 -76
-30 -97 -44 -21 -14 -60 -33 -87 -41 -27 -8 -74 -30 -106 -50 -32 -19 -64 -35
-72 -35 -26 0 -334 -160 -365 -190 -16 -15 -55 -40 -85 -56 -30 -15 -77 -38
-105 -52 -27 -13 -63 -36 -78 -50 -28 -26 -72 -52 -157 -92 -58 -26 -78 -39
-126 -73 -67 -49 -148 -97 -162 -97 -15 0 -109 -65 -173 -119 -19 -17 -56 -39
-80 -49 -24 -11 -51 -27 -58 -36 -8 -10 -31 -26 -50 -37 -20 -11 -55 -34 -78
-52 -23 -18 -67 -50 -99 -72 -31 -22 -89 -70 -128 -107 -39 -38 -74 -68 -78
-68 -4 0 -23 -14 -43 -31 -19 -17 -53 -43 -74 -57 -22 -15 -88 -74 -147 -132
-59 -58 -135 -125 -170 -150 -133 -95 -247 -197 -461 -413 -123 -123 -223
-229 -223 -235 0 -15 -138 -168 -288 -321 -67 -67 -122 -127 -122 -132 0 -7
-32 -47 -120 -149 -61 -69 -98 -116 -124 -155 -61 -91 -76 -111 -104 -140 -17
-16 -40 -53 -52 -82 -12 -28 -30 -59 -41 -69 -10 -9 -19 -23 -19 -30 0 -7 -13
-29 -30 -47 -16 -19 -39 -56 -50 -83 -12 -27 -30 -58 -41 -70 -20 -21 -59 -90
-104 -184 -15 -30 -36 -65 -48 -78 -24 -26 -62 -89 -106 -178 -17 -33 -42 -71
-56 -84 -14 -13 -25 -30 -25 -37 0 -22 -31 -77 -51 -91 -11 -7 -24 -33 -30
-58 -6 -24 -24 -61 -40 -81 -16 -20 -36 -60 -45 -89 -8 -29 -21 -58 -29 -64
-8 -6 -21 -35 -31 -63 -9 -29 -29 -75 -44 -103 -16 -28 -34 -71 -40 -95 -6
-24 -25 -64 -40 -89 -16 -25 -34 -67 -41 -95 -6 -27 -27 -78 -45 -113 -18 -35
-36 -84 -40 -110 -4 -26 -17 -68 -30 -94 -13 -26 -29 -81 -35 -123 -8 -53 -20
-88 -41 -119 -18 -28 -33 -68 -39 -106 -5 -34 -21 -84 -35 -111 -13 -27 -31
-83 -39 -125 -8 -42 -26 -101 -40 -131 -13 -30 -30 -85 -36 -121 -6 -37 -22
-90 -35 -118 -12 -28 -30 -98 -39 -155 -9 -57 -30 -147 -47 -199 -17 -56 -34
-136 -39 -193 -5 -54 -20 -131 -33 -170 -15 -43 -29 -120 -35 -192 -7 -66 -20
-172 -31 -235 -39 -231 -65 -719 -58 -1120 4 -287 7 -304 61 -344 l28 -21
1787 -1 c1742 0 1789 0 1847 19 120 39 155 106 135 260 -11 91 -39 151 -82
177 -79 48 -368 64 -993 56 -264 -3 -502 -8 -530 -11 -27 -3 -338 -7 -690 -7
-549 -2 -660 0 -778 15 -77 9 -161 17 -187 17 -79 0 -84 10 -77 165 4 71 11
157 17 190 16 91 38 347 50 575 13 248 16 269 46 343 14 31 25 79 25 105 2 68
17 162 34 202 17 42 60 233 70 309 3 30 17 76 31 103 14 28 29 80 34 123 5 41
17 90 26 108 17 32 21 45 44 162 6 33 24 87 40 121 15 34 33 86 39 114 6 28
22 70 35 93 13 23 32 67 41 97 10 30 28 75 40 100 13 25 30 70 39 100 9 30 28
71 42 91 14 20 31 60 39 89 7 28 26 67 40 86 16 21 33 62 41 100 7 36 22 80
34 98 11 18 27 53 35 77 9 24 29 64 45 89 16 26 33 62 36 81 4 19 18 55 31 81
12 26 32 72 43 101 11 30 29 62 40 72 11 10 27 42 36 71 8 28 24 60 35 70 12
11 30 36 41 58 11 21 33 57 49 79 16 22 29 46 29 53 0 7 13 28 29 46 15 18 38
51 50 73 12 22 44 67 71 100 28 33 66 83 85 111 19 28 41 54 49 57 9 4 22 23
31 44 9 21 27 49 40 63 13 14 30 42 39 62 8 21 32 55 53 76 42 43 77 90 177
238 19 28 42 54 50 57 8 3 23 21 32 39 9 18 41 61 71 95 29 34 66 85 81 113
25 46 113 145 298 333 39 40 75 79 80 89 5 9 38 42 74 73 36 31 97 85 135 120
39 35 98 87 132 116 34 30 83 80 109 112 26 32 61 65 78 74 41 21 110 70 157
113 22 19 62 53 90 75 28 22 65 54 82 71 18 17 54 46 80 65 93 66 112 80 137
103 14 13 39 31 56 39 17 9 37 23 44 32 8 9 32 26 54 37 23 11 51 30 64 42 13
11 40 30 61 41 62 33 131 78 170 111 20 18 52 39 71 48 32 15 78 47 156 110
17 14 51 34 75 45 24 10 59 31 78 45 19 14 40 26 47 26 7 0 30 15 52 33 22 19
61 40 87 47 27 8 53 22 62 36 8 13 37 30 66 40 29 9 67 28 86 42 18 13 51 29
74 34 22 5 72 24 111 43 38 19 77 35 86 35 10 0 42 13 72 30 31 16 79 32 108
36 31 4 63 16 78 29 41 33 64 43 120 51 38 5 57 13 76 35 14 15 42 32 63 38
99 24 97 25 126 -21 21 -34 36 -35 72 -7 l27 22 -26 23 c-33 31 -26 45 32 72
26 12 64 33 86 46 21 13 63 29 92 35 30 6 74 22 98 36 31 18 66 27 129 34 70
7 92 13 116 34 22 18 48 28 88 32 94 11 145 24 196 51 30 15 85 30 146 39 65
10 114 24 144 40 31 18 72 29 133 36 49 5 123 22 164 36 44 15 126 31 198 39
145 16 170 26 241 92 51 48 53 52 47 89 -14 81 -13 143 2 206 22 93 16 99
-138 133 -49 11 -116 13 -157 4z" id="orange1"/>
    <path d="M8925 17344 c-33 -7 -121 -18 -195 -25 -74 -6 -162 -20 -194 -30 -33
-11 -92 -24 -130 -30 -39 -5 -109 -21 -156 -34 -120 -33 -278 -65 -322 -65
-24 0 -62 -13 -104 -35 -47 -25 -78 -35 -111 -35 -31 0 -72 -12 -127 -36 -128
-57 -121 -41 -106 -256 10 -144 11 -538 5 -1833 -4 -907 -10 -2786 -13 -4175
-4 -1389 -11 -2531 -15 -2537 -4 -7 -10 -133 -13 -280 -2 -148 -7 -284 -10
-304 -5 -36 -49 -114 -96 -173 -13 -16 -32 -44 -43 -62 -85 -136 -158 -220
-255 -294 -97 -74 -626 -604 -691 -693 -11 -15 -29 -32 -39 -37 -26 -14 -52
13 -44 45 3 13 1 281 -5 597 -10 545 -13 862 -27 3133 -3 534 -7 2136 -9 3560
-2 1425 -6 2606 -10 2625 -9 39 -41 80 -64 80 -30 0 -258 -122 -327 -175 -43
-34 -158 -105 -169 -105 -4 0 -25 -15 -48 -32 -22 -18 -59 -44 -82 -58 -82
-49 -108 -65 -158 -99 -27 -18 -66 -40 -85 -48 -42 -17 -57 -28 -190 -138 -53
-44 -115 -94 -137 -110 -55 -41 -494 -469 -631 -615 -28 -30 -116 -118 -195
-195 -79 -77 -161 -166 -182 -198 -21 -32 -66 -88 -98 -125 -33 -37 -74 -91
-92 -121 -87 -145 -105 -173 -147 -226 -25 -32 -49 -65 -55 -74 -5 -9 -28 -45
-51 -81 -22 -36 -58 -96 -79 -135 -20 -38 -70 -119 -110 -180 -40 -60 -82
-128 -94 -150 -12 -22 -44 -78 -71 -125 -132 -230 -262 -511 -329 -707 -51
-153 -62 -188 -111 -353 -28 -96 -61 -198 -72 -227 -10 -29 -25 -89 -32 -135
-8 -46 -21 -99 -29 -120 -9 -20 -21 -69 -27 -110 -6 -40 -17 -93 -25 -118 -7
-25 -16 -67 -20 -95 -4 -27 -15 -81 -26 -120 -11 -38 -24 -111 -29 -160 -5
-50 -16 -110 -24 -133 -13 -37 -14 -63 -3 -197 12 -138 15 -157 36 -179 34
-36 167 -70 251 -64 135 10 162 50 190 283 6 50 22 145 35 211 14 67 25 137
25 157 0 20 9 60 19 89 10 29 22 86 25 126 4 43 17 98 31 131 13 32 38 109 55
170 17 62 42 141 56 178 14 36 29 88 35 117 6 28 21 67 33 86 13 19 33 69 45
110 13 41 31 91 41 110 9 19 23 58 29 87 7 28 25 72 41 96 15 25 37 78 48 118
11 41 32 103 46 139 25 61 158 338 194 405 8 17 29 57 45 90 16 33 38 69 48
81 23 24 83 122 112 179 11 22 31 54 44 70 24 31 91 118 153 200 19 25 53 68
75 94 22 27 48 61 57 77 10 16 36 56 58 89 22 33 48 73 57 89 10 16 50 66 88
110 84 97 147 180 168 221 13 26 252 269 471 479 38 37 108 92 155 123 47 30
103 71 124 89 20 19 42 34 47 34 6 0 25 13 43 30 35 33 86 70 131 97 16 10 48
34 70 54 51 45 80 61 100 53 17 -6 21 -20 30 -89 3 -22 11 -76 18 -120 10 -62
13 -367 12 -1338 -1 -692 -4 -1315 -8 -1385 -19 -377 -26 -1432 -28 -4007 -1
-2822 -1 -2861 -21 -2900 -58 -118 -246 -333 -452 -517 -177 -158 -505 -505
-505 -534 1 -56 86 -163 206 -260 27 -21 82 -67 121 -101 40 -35 77 -63 83
-63 5 0 32 -19 60 -42 86 -74 121 -101 164 -129 22 -16 66 -48 96 -73 30 -25
69 -53 85 -62 17 -9 44 -29 61 -43 17 -14 55 -39 84 -56 29 -16 80 -47 114
-67 33 -21 86 -50 116 -64 30 -15 69 -38 86 -51 17 -13 34 -23 39 -23 8 0 218
-105 332 -167 43 -23 98 -51 123 -63 25 -11 56 -27 70 -35 14 -8 45 -24 70
-36 25 -11 75 -36 112 -55 37 -19 73 -34 81 -34 7 0 50 -18 96 -40 45 -22 89
-40 96 -40 7 0 43 -16 79 -35 36 -19 87 -40 113 -46 27 -7 70 -23 96 -36 27
-13 85 -33 130 -44 44 -11 92 -26 106 -34 28 -14 365 -101 496 -128 44 -9 105
-24 137 -32 31 -9 118 -23 195 -33 186 -24 246 -12 290 55 15 22 18 47 17 133
-3 161 -11 182 -94 236 -80 51 -123 68 -200 79 -30 4 -73 14 -95 22 -22 7 -80
21 -130 29 -49 9 -105 24 -125 34 -19 9 -69 25 -110 35 -41 10 -113 35 -160
55 -47 20 -107 43 -135 50 -27 7 -66 21 -85 30 -19 9 -64 22 -100 29 -95 17
-250 67 -370 118 -172 74 -304 135 -320 149 -9 7 -42 25 -75 40 -98 45 -317
165 -353 193 -46 35 -88 63 -230 149 -166 100 -221 136 -262 170 -19 16 -53
39 -76 50 -22 11 -46 28 -54 37 -7 9 -30 23 -49 31 -20 8 -52 30 -71 48 -19
19 -50 41 -67 50 -18 9 -40 27 -48 40 -16 23 -11 56 7 56 5 0 62 52 125 115
63 63 136 128 163 145 l48 31 1253 5 c690 3 1309 9 1377 14 141 10 192 30 226
90 18 30 21 56 24 175 2 102 -1 147 -10 165 -28 53 -24 53 -958 61 -476 4
-928 12 -1005 18 -77 5 -184 10 -237 11 -74 0 -100 4 -112 16 -9 8 -16 18 -16
20 0 3 57 63 128 133 70 70 188 190 262 268 74 77 200 207 280 289 80 82 199
210 265 284 66 74 141 156 168 182 l49 48 2557 -3 c1914 -1 2561 -5 2576 -14
11 -6 88 -79 170 -162 83 -83 205 -199 272 -259 67 -59 190 -178 275 -266 272
-282 423 -428 578 -561 181 -155 282 -253 415 -400 54 -60 111 -122 127 -137
32 -30 35 -42 11 -60 -9 -7 -75 -71 -147 -143 -148 -147 -268 -247 -329 -276
-37 -17 -77 -40 -217 -124 -18 -11 -51 -34 -74 -52 -22 -18 -75 -52 -116 -76
-157 -93 -204 -123 -244 -158 -36 -32 -117 -79 -326 -191 -30 -16 -68 -38 -85
-48 -36 -22 -432 -192 -490 -210 -22 -7 -52 -19 -67 -26 -15 -8 -60 -21 -100
-28 -40 -8 -86 -20 -103 -26 -16 -7 -70 -25 -120 -40 -49 -16 -128 -42 -175
-59 -47 -17 -115 -38 -152 -46 -38 -8 -85 -22 -105 -30 -21 -9 -76 -23 -123
-31 -47 -8 -121 -26 -165 -39 -162 -48 -315 -79 -541 -109 -67 -9 -138 -22
-159 -27 -78 -22 -119 -95 -119 -214 0 -33 4 -276 8 -540 7 -427 10 -485 26
-522 29 -67 56 -78 185 -78 100 0 114 2 162 27 73 39 93 68 94 137 0 31 8 97
17 148 15 79 16 121 8 306 -5 118 -6 226 -3 239 4 15 18 30 34 37 43 17 219
58 326 75 53 9 120 25 149 36 29 11 115 31 190 45 76 14 155 32 175 40 21 8
78 24 126 35 48 11 105 28 125 39 20 10 64 24 97 31 33 7 96 27 140 45 44 18
95 36 113 40 18 4 68 24 110 45 42 21 113 55 157 75 44 20 109 51 145 69 36
19 77 36 91 39 14 4 43 19 65 33 21 15 59 34 84 42 25 8 58 24 75 36 32 22
110 64 215 116 36 17 73 39 83 48 10 8 43 29 75 45 138 70 192 101 262 147 41
27 89 56 106 65 18 8 45 25 60 38 16 13 45 32 64 42 19 10 67 46 105 80 39 34
81 68 95 75 13 7 57 38 98 69 40 31 88 66 105 79 18 13 43 33 57 45 14 12 41
33 60 46 34 24 100 78 273 225 117 100 253 233 298 293 55 74 54 114 -5 185
-83 99 -248 259 -326 315 -105 77 -507 470 -663 648 -82 94 -255 256 -312 292
-22 14 -111 98 -199 187 -87 88 -169 168 -181 176 -12 8 -66 65 -120 125 -122
137 -196 210 -249 244 -23 14 -86 62 -139 106 -168 137 -176 142 -259 149 -40
4 -905 6 -1923 5 -1388 -1 -1864 1 -1905 10 -30 6 -107 14 -170 17 -63 3 -125
7 -136 10 -44 8 -36 33 39 114 97 106 198 226 221 264 10 17 168 180 350 361
182 182 368 373 414 425 45 52 98 113 117 135 134 154 205 235 232 264 17 18
37 41 45 50 8 9 110 109 226 223 140 138 216 206 225 202 24 -9 35 -51 42
-158 4 -57 17 -135 31 -185 15 -48 29 -134 34 -196 25 -299 30 -337 59 -409
16 -40 34 -99 41 -131 12 -61 33 -105 49 -105 26 0 157 189 197 284 12 28 47
96 78 151 31 55 89 165 129 245 41 80 81 159 90 175 9 17 75 152 147 300 73
149 138 277 146 286 8 9 25 44 39 79 14 35 31 70 39 79 7 9 19 39 26 66 6 28
35 95 65 150 29 55 85 165 125 245 40 80 98 185 128 234 59 95 142 254 142
272 0 6 14 29 31 50 18 22 43 62 56 89 13 28 45 88 70 135 25 47 60 112 77
145 17 33 41 75 54 92 12 17 29 50 37 73 8 23 24 54 35 70 12 16 29 54 40 85
10 30 26 65 34 77 9 12 16 32 16 43 0 11 11 40 24 65 53 103 102 188 124 216
30 37 67 91 89 128 10 16 37 51 61 78 23 27 42 52 42 56 0 4 33 41 73 83 39
42 92 104 117 139 25 35 78 97 118 139 39 42 72 79 72 83 0 4 33 40 73 80 40
40 78 85 84 100 7 15 26 34 42 42 41 22 56 4 65 -75 4 -41 17 -84 37 -122 17
-33 37 -85 45 -115 8 -31 20 -62 26 -69 6 -7 19 -44 29 -81 11 -37 30 -105 43
-152 13 -47 33 -107 44 -135 11 -27 23 -70 27 -95 6 -38 38 -117 88 -218 18
-37 66 -72 98 -72 25 0 35 10 73 68 24 37 49 85 56 107 6 22 27 72 45 110 19
39 36 88 39 109 3 22 17 64 32 95 15 30 33 89 40 130 7 42 17 102 23 133 5 32
31 101 58 155 50 103 94 220 118 313 8 30 32 91 54 135 23 44 46 103 52 130 7
28 22 70 34 95 12 25 30 72 40 105 9 33 28 80 41 105 13 25 46 97 74 160 28
63 66 144 84 180 19 36 41 89 50 118 8 29 29 77 45 105 16 29 32 73 36 99 4
26 20 67 35 91 35 56 73 163 105 299 13 58 33 128 44 155 10 26 22 80 26 118
4 39 15 90 25 115 39 100 71 237 61 263 -15 40 -42 49 -91 32 -24 -8 -62 -15
-87 -15 -28 0 -53 -7 -71 -20 -15 -11 -53 -25 -86 -31 -32 -6 -75 -21 -95 -34
-39 -26 -194 -92 -281 -120 -30 -10 -62 -24 -71 -31 -8 -8 -42 -25 -75 -38
-32 -13 -85 -40 -117 -60 -33 -19 -73 -38 -90 -42 -18 -4 -48 -17 -67 -30 -19
-13 -38 -24 -43 -24 -16 0 -194 -73 -233 -96 -22 -13 -49 -24 -60 -24 -11 0
-51 -19 -89 -42 -102 -60 -266 -143 -332 -168 -32 -12 -69 -28 -81 -37 -13 -8
-48 -23 -78 -33 -30 -11 -68 -28 -84 -40 -15 -11 -59 -30 -96 -41 -37 -12 -77
-27 -88 -34 -12 -8 -73 -29 -136 -49 -63 -19 -141 -44 -172 -55 -32 -12 -64
-21 -72 -21 -8 0 -37 -19 -64 -42 -29 -25 -89 -59 -143 -82 -52 -22 -134 -62
-184 -88 -49 -26 -122 -63 -162 -82 -39 -19 -77 -44 -83 -55 -20 -39 17 -79
96 -105 28 -9 69 -30 90 -46 22 -16 45 -30 53 -30 8 0 60 -20 115 -44 56 -24
121 -49 146 -54 25 -6 68 -16 95 -22 28 -6 65 -21 84 -32 25 -16 58 -23 135
-28 60 -4 113 -13 131 -22 17 -9 49 -19 73 -23 41 -7 72 -26 72 -46 0 -5 -9
-17 -21 -26 -11 -10 -49 -45 -83 -78 -35 -33 -95 -89 -133 -125 -39 -36 -81
-83 -93 -106 -15 -26 -38 -49 -66 -63 -65 -35 -162 -138 -178 -189 -4 -12 -21
-29 -37 -37 -16 -9 -35 -28 -44 -43 -28 -52 -146 -146 -259 -207 -26 -15 -66
-40 -89 -56 -22 -16 -44 -29 -49 -29 -5 0 -40 -22 -79 -49 -39 -27 -84 -53
-100 -56 -16 -4 -53 -28 -82 -54 -28 -27 -74 -60 -102 -75 -62 -33 -105 -59
-170 -101 -27 -18 -66 -41 -85 -50 -38 -20 -93 -60 -156 -116 -23 -20 -52 -40
-65 -44 -13 -4 -62 -33 -108 -64 -130 -87 -296 -186 -386 -229 -33 -16 -66
-37 -74 -46 -8 -10 -35 -28 -60 -41 -25 -13 -90 -52 -143 -87 -165 -108 -212
-136 -238 -146 -14 -6 -32 -17 -39 -26 -16 -19 -175 -126 -188 -126 -5 0 -20
-11 -33 -25 -13 -14 -72 -51 -130 -82 -58 -30 -116 -66 -130 -79 -14 -12 -50
-35 -80 -49 -30 -15 -82 -43 -115 -63 -33 -20 -75 -46 -93 -57 -19 -11 -57
-34 -85 -52 -29 -17 -99 -57 -157 -89 -148 -82 -296 -205 -319 -266 -14 -38 9
-61 89 -87 94 -29 225 -61 252 -61 12 0 73 -9 133 -19 122 -22 371 -52 453
-55 34 -1 56 -7 62 -16 15 -23 12 -29 -19 -58 -16 -15 -36 -41 -44 -57 -20
-40 -144 -168 -182 -188 -29 -15 -53 -40 -181 -183 -193 -217 -249 -277 -269
-290 -13 -8 -34 -32 -48 -52 -13 -20 -51 -67 -83 -103 -32 -36 -85 -98 -118
-136 -32 -39 -69 -76 -82 -82 -41 -18 -181 -149 -267 -249 -137 -158 -404
-422 -422 -416 -8 4 -16 11 -17 18 -13 88 -36 2660 -31 3526 3 481 6 985 6
1120 1 135 -2 911 -6 1725 -5 935 -4 1509 2 1560 6 44 14 109 20 145 13 84 17
229 7 256 -12 34 15 51 96 59 48 4 94 17 133 35 33 16 96 36 140 45 44 8 106
25 138 35 31 11 78 20 105 20 26 0 83 9 127 19 44 10 105 22 135 26 82 11 204
52 226 76 17 19 19 37 19 178 -1 238 -24 264 -200 225z" id="orange2"/>
    <path d="M10848 17275 c-165 -15 -180 -32 -193 -213 l-6 -93 33 -33 c54 -53
215 -101 413 -122 28 -3 84 -14 125 -24 41 -11 119 -24 172 -30 54 -5 117 -17
140 -25 24 -8 60 -15 81 -15 42 0 435 -128 489 -159 18 -10 58 -24 88 -31 30
-7 81 -26 112 -41 32 -16 81 -34 110 -40 29 -6 71 -20 92 -31 22 -11 62 -27
90 -35 28 -8 74 -28 101 -43 28 -16 70 -34 95 -40 25 -6 68 -24 95 -40 28 -15
74 -35 103 -44 29 -8 64 -24 79 -36 14 -11 56 -29 93 -40 37 -11 73 -27 80
-35 6 -8 37 -24 68 -35 32 -12 68 -32 82 -44 14 -12 44 -28 66 -34 23 -7 47
-19 54 -27 7 -8 33 -24 59 -36 25 -11 56 -30 69 -42 12 -11 42 -33 66 -47 24
-14 75 -45 112 -70 37 -25 91 -58 120 -75 28 -16 90 -56 137 -88 109 -73 149
-90 217 -90 86 0 150 20 206 63 27 22 65 48 84 59 71 39 93 85 61 130 -23 31
-161 150 -199 170 -13 7 -68 44 -122 82 -55 38 -104 69 -109 69 -6 0 -25 13
-43 29 -18 15 -49 36 -68 46 -19 10 -50 30 -69 44 -33 26 -87 58 -166 102 -22
12 -60 34 -85 50 -55 35 -114 67 -205 112 -73 36 -189 110 -200 127 -14 22
-256 130 -419 186 -54 18 -103 37 -110 42 -40 30 -256 104 -546 186 -52 15
-124 38 -160 51 -36 14 -83 28 -105 31 -22 4 -67 20 -100 36 -33 15 -70 28
-81 28 -12 0 -41 7 -65 16 -24 8 -86 22 -137 30 -52 8 -102 19 -113 24 -10 6
-67 15 -126 21 -59 5 -129 17 -154 25 -54 17 -219 17 -411 -1z" id="orange3"/>
    <path d="M10671 16245 c-41 -36 -55 -108 -48 -251 3 -60 11 -122 16 -137 17
-45 61 -63 200 -81 70 -9 152 -23 182 -31 29 -8 87 -19 128 -26 42 -6 87 -17
101 -24 14 -7 49 -15 79 -19 30 -4 82 -18 115 -32 34 -14 92 -31 129 -39 37
-8 82 -22 100 -32 18 -9 66 -27 107 -39 41 -12 131 -43 200 -67 69 -25 169
-61 222 -80 53 -19 112 -44 130 -55 18 -11 58 -27 88 -35 30 -9 70 -27 89 -41
19 -14 50 -31 70 -37 20 -6 52 -22 71 -35 20 -13 56 -30 80 -37 25 -8 63 -26
84 -40 21 -15 44 -27 51 -27 7 0 39 -14 71 -32 79 -42 162 -44 244 -5 30 15
64 27 75 27 44 0 205 110 205 140 0 23 -113 136 -169 170 -23 14 -59 38 -79
53 -20 16 -53 37 -73 47 -19 10 -69 40 -110 67 -70 45 -167 96 -439 227 -110
53 -240 106 -360 146 -30 10 -100 35 -155 55 -55 20 -138 44 -185 55 -47 10
-105 26 -130 35 -24 8 -86 22 -136 30 -51 9 -112 24 -135 34 -24 11 -87 29
-139 40 -52 12 -153 34 -225 51 -166 38 -240 49 -342 50 -73 0 -85 -3 -112
-25z" id="orange4"/>
    <path d="M15753 14538 c-30 -33 -121 -213 -139 -277 -24 -81 -15 -132 44 -234
27 -49 59 -98 70 -110 11 -12 29 -42 41 -67 20 -43 59 -103 116 -179 14 -19
25 -42 25 -53 0 -10 15 -35 34 -55 18 -21 44 -60 58 -88 14 -27 53 -104 87
-169 33 -66 61 -125 61 -131 0 -7 13 -29 30 -50 16 -20 39 -62 50 -93 12 -31
32 -77 46 -102 27 -52 66 -147 99 -240 12 -36 31 -83 42 -105 12 -22 26 -60
33 -85 7 -25 27 -79 45 -120 19 -41 45 -111 58 -155 14 -44 35 -107 47 -140
39 -112 99 -330 105 -385 4 -30 12 -73 20 -95 16 -46 26 -99 55 -275 11 -69
27 -156 35 -195 8 -38 17 -92 21 -120 3 -27 15 -84 25 -125 15 -61 25 -81 53
-107 35 -33 37 -33 133 -33 140 0 232 16 261 43 24 22 24 22 19 197 -3 115
-11 194 -21 230 -8 30 -19 89 -22 130 -4 41 -15 108 -25 149 -11 41 -19 95
-19 121 0 26 -13 88 -30 138 -16 50 -30 105 -30 122 0 17 -14 60 -30 97 -17
37 -33 85 -36 107 -3 23 -32 118 -65 211 -84 246 -133 395 -163 497 -8 26 -37
96 -65 157 -28 60 -65 145 -82 188 -53 136 -181 396 -210 428 -10 11 -25 38
-34 60 -9 22 -28 52 -41 66 -29 30 -80 110 -124 193 -38 71 -152 240 -190 281
-25 27 -55 71 -164 237 -21 31 -49 64 -63 73 -13 9 -37 30 -51 46 -37 40 -81
47 -109 17z" id="orange5"/>
    <path d="M15273 13313 c-41 -44 -102 -157 -113 -210 -6 -26 -20 -77 -32 -112
l-22 -64 22 -61 c11 -34 26 -80 32 -104 6 -23 22 -59 35 -79 14 -20 25 -41 25
-48 0 -7 16 -37 36 -66 20 -30 41 -70 46 -89 5 -19 25 -66 43 -105 46 -94 81
-183 112 -280 14 -44 36 -105 49 -136 13 -31 28 -80 34 -108 5 -28 16 -64 25
-81 8 -16 27 -82 40 -147 14 -65 36 -143 49 -173 13 -30 36 -91 52 -134 35
-100 62 -132 127 -151 98 -29 277 -14 314 27 26 29 22 224 -6 289 -11 24 -25
76 -31 114 -6 39 -17 90 -25 115 -8 25 -23 86 -35 135 -24 107 -71 280 -95
350 -58 165 -75 217 -94 283 -28 93 -142 328 -191 389 -12 15 -42 64 -67 108
-58 102 -120 203 -145 235 -10 14 -34 49 -54 78 -31 46 -38 52 -70 52 -26 0
-42 -8 -61 -27z" id="orange6"/>
    <path d="M13162 11484 c-54 -38 -136 -160 -217 -326 -47 -95 -99 -200 -116
-233 -119 -230 -155 -294 -179 -325 -15 -19 -31 -46 -35 -60 -4 -14 -20 -50
-35 -80 -15 -30 -34 -77 -41 -105 -26 -101 -281 -626 -344 -709 -25 -34 -129
-233 -262 -501 -85 -174 -91 -185 -174 -341 -27 -49 -56 -110 -64 -135 -33
-93 -91 -222 -192 -426 -57 -116 -107 -229 -110 -250 -5 -35 -2 -42 26 -65 92
-78 359 -69 449 16 30 28 162 236 162 255 0 5 14 28 32 52 17 24 40 66 51 93
10 28 26 61 36 75 10 14 25 46 35 71 10 25 27 61 40 80 12 19 34 60 49 90 14
30 33 66 41 80 8 14 26 48 39 75 13 28 30 64 39 80 9 17 34 68 56 115 22 47
56 119 76 160 20 41 36 80 36 86 0 7 16 35 35 64 19 28 44 73 55 98 12 26 30
56 40 67 11 11 26 39 34 62 12 35 45 90 99 167 8 11 32 22 62 27 28 4 506 8
1064 8 l1013 1 35 -37 c20 -21 55 -67 78 -103 78 -118 163 -193 293 -258 107
-53 182 -66 339 -59 119 6 126 7 222 51 94 42 179 102 283 198 20 19 48 59 61
89 14 30 40 71 60 92 l35 37 1103 -1 c607 0 1141 -4 1187 -7 56 -5 86 -12 92
-22 13 -20 13 -318 0 -455 -6 -60 -17 -146 -25 -190 -8 -44 -23 -168 -34 -276
-14 -147 -24 -205 -39 -235 -23 -45 -29 -73 -37 -169 -7 -91 -13 -118 -36
-169 -10 -23 -27 -96 -39 -161 -11 -66 -31 -145 -45 -175 -13 -30 -30 -92 -39
-138 -8 -46 -24 -98 -35 -115 -11 -18 -27 -65 -35 -105 -8 -41 -27 -104 -42
-140 -15 -37 -33 -92 -40 -122 -7 -31 -27 -82 -43 -114 -17 -32 -31 -68 -31
-80 0 -11 -15 -53 -34 -92 -19 -39 -38 -84 -42 -100 -4 -16 -21 -58 -40 -94
-52 -103 -114 -241 -114 -254 0 -7 -18 -48 -39 -92 -21 -43 -42 -93 -46 -111
-3 -18 -20 -49 -36 -69 -16 -20 -29 -42 -29 -48 0 -20 -102 -220 -126 -246
-12 -14 -27 -43 -33 -66 -6 -22 -22 -51 -36 -64 -13 -12 -31 -44 -40 -70 -9
-26 -27 -57 -40 -70 -13 -13 -31 -44 -40 -70 -9 -26 -25 -56 -35 -65 -11 -10
-33 -41 -50 -69 -39 -66 -72 -113 -107 -155 -15 -19 -37 -49 -48 -67 -30 -49
-85 -125 -117 -162 -15 -18 -28 -39 -28 -47 0 -8 -19 -37 -42 -64 -65 -76 -83
-102 -111 -156 -13 -27 -34 -59 -46 -69 -12 -11 -21 -25 -21 -31 0 -21 -69
-118 -114 -160 -24 -22 -83 -85 -131 -140 -49 -55 -104 -116 -124 -135 -36
-35 -199 -210 -356 -382 -102 -112 -237 -246 -274 -273 -42 -30 -107 -81 -171
-135 -36 -30 -126 -101 -213 -168 -27 -20 -66 -53 -88 -72 -82 -74 -116 -101
-159 -128 -25 -16 -85 -68 -135 -115 -61 -59 -104 -92 -135 -104 -25 -9 -61
-30 -80 -47 -61 -55 -114 -93 -167 -120 -28 -14 -54 -30 -58 -36 -4 -6 -32
-24 -63 -41 -31 -16 -88 -50 -127 -74 -38 -25 -117 -70 -175 -101 -58 -31
-120 -70 -138 -85 -18 -16 -38 -29 -44 -29 -9 0 -262 -120 -403 -192 -424
-216 -541 -272 -600 -289 -38 -11 -91 -29 -117 -40 -26 -10 -77 -26 -115 -35
-37 -8 -73 -20 -80 -26 -7 -5 -54 -22 -105 -38 -51 -15 -146 -44 -210 -64 -64
-20 -127 -36 -140 -36 -13 0 -43 -9 -67 -20 -23 -11 -71 -24 -106 -30 -34 -5
-82 -17 -106 -25 -71 -25 -229 -63 -294 -70 -33 -4 -83 -17 -111 -30 -28 -12
-103 -30 -170 -40 -65 -10 -135 -24 -154 -32 -19 -7 -82 -21 -140 -29 -58 -8
-148 -24 -200 -34 -52 -10 -149 -21 -215 -24 -66 -4 -201 -14 -300 -23 -176
-16 -373 -13 -404 6 -10 6 -12 165 -9 747 2 406 1 1039 -1 1405 -4 750 -10
692 76 705 61 9 420 -11 458 -26 28 -11 45 -26 45 -42 0 -4 -20 -30 -44 -57
-49 -55 -66 -100 -66 -176 0 -98 47 -135 171 -135 96 0 260 20 337 41 41 11
108 24 150 30 43 5 109 19 147 29 39 11 120 31 182 44 62 14 129 34 151 45 21
11 67 27 102 36 35 9 84 27 109 39 25 13 69 29 96 35 28 7 73 25 100 41 28 15
70 34 95 40 25 6 68 25 96 41 28 16 59 29 67 29 9 0 58 22 109 49 51 26 105
51 119 54 31 8 172 84 250 135 30 20 77 51 103 67 27 17 67 47 90 67 34 31 39
40 30 55 -26 41 -90 45 -834 42 -388 -2 -1118 -3 -1622 -4 -915 0 -917 0 -945
-21 -15 -12 -33 -32 -40 -45 -29 -59 -35 -309 -35 -1464 0 -1920 1 -2204 12
-2244 5 -21 18 -45 28 -54 27 -24 189 -54 332 -61 302 -14 469 -17 535 -7 39
6 142 17 230 26 273 27 337 36 440 61 55 14 149 30 210 35 60 6 151 21 200 34
50 13 149 31 220 39 79 9 156 25 195 40 36 13 101 29 145 36 44 7 107 23 139
36 33 13 97 33 141 44 45 10 107 30 138 44 31 13 82 30 114 36 32 7 76 22 99
35 22 13 72 32 110 41 38 9 90 27 115 40 25 12 74 30 109 39 35 9 84 27 109
40 25 12 69 30 97 38 28 8 68 24 90 35 22 11 59 25 84 32 25 6 70 26 100 44
30 19 73 39 95 46 22 7 56 23 75 36 19 12 54 27 76 33 23 6 58 24 77 40 20 16
57 34 81 40 24 6 58 22 74 36 17 14 47 32 69 41 21 9 50 24 64 34 14 10 48 27
76 38 28 11 67 31 86 46 20 15 53 32 74 38 21 5 63 25 93 43 30 18 71 42 90
53 19 12 61 35 92 51 31 17 60 35 63 42 4 6 39 26 79 45 97 46 254 146 291
186 17 18 46 42 65 53 18 11 52 31 75 45 43 26 112 81 171 137 19 18 40 33 48
33 17 0 128 81 267 195 27 22 69 56 95 75 25 19 60 49 78 66 17 17 47 41 66
54 108 74 841 801 918 911 16 23 149 179 196 229 13 14 31 40 40 58 9 18 23
35 31 38 14 6 72 76 130 159 17 24 50 69 75 100 25 31 59 74 75 95 17 21 55
69 86 107 30 37 79 109 109 158 29 50 63 101 75 115 12 14 29 44 39 67 10 23
29 52 42 64 13 12 30 43 39 70 9 26 23 53 31 60 9 7 26 34 39 59 13 25 31 52
40 60 9 7 26 32 37 54 11 23 29 50 39 61 10 11 25 38 35 60 9 22 27 55 42 74
29 39 54 85 148 271 37 74 78 151 90 170 12 19 25 49 29 67 3 17 37 94 75 170
68 137 93 198 150 358 15 44 38 101 50 128 11 26 27 78 34 117 8 38 25 88 39
112 14 24 30 70 36 102 6 33 22 79 36 102 14 24 35 80 46 125 11 45 31 103 44
128 13 26 26 69 30 96 4 28 20 79 35 115 15 36 33 97 39 135 6 39 25 117 41
175 16 58 34 143 40 190 6 47 22 126 35 175 13 50 29 135 34 190 6 55 15 125
21 155 42 216 69 616 73 1080 2 304 -6 364 -54 404 -16 14 -49 28 -73 31 -24
4 -216 3 -427 -2 -362 -8 -598 -7 -1849 12 l-515 8 -38 41 c-21 23 -50 64 -66
92 -38 66 -199 213 -276 252 -106 53 -337 72 -478 38 -162 -38 -332 -169 -440
-338 -20 -31 -49 -64 -64 -71 -45 -23 -434 -37 -1033 -37 -419 0 -556 4 -630
15 -52 8 -121 15 -152 15 -38 0 -62 5 -72 16 -9 8 -16 18 -16 20 0 5 30 62 92
172 78 140 146 294 164 370 27 116 29 193 6 254 -11 29 -25 80 -32 113 -12 62
-81 227 -108 258 -19 21 -31 21 -60 1z m2566 -1243 c20 -11 51 -25 68 -31 17
-6 48 -32 69 -57 44 -53 59 -110 49 -193 -6 -49 -12 -61 -58 -106 -46 -47 -56
-53 -109 -59 -37 -5 -87 -3 -134 5 -64 11 -83 19 -122 53 -57 50 -58 51 -62
112 -7 130 -2 152 42 200 22 24 57 49 77 56 20 6 46 18 57 25 28 20 80 17 123
-5z" id="orange7"/>
    <path d="M2463 9239 c-47 -14 -66 -48 -60 -106 18 -174 84 -541 106 -581 5
-10 19 -65 31 -122 12 -57 27 -117 34 -135 8 -18 17 -56 21 -86 4 -30 15 -79
25 -109 30 -91 68 -223 75 -260 4 -19 16 -49 26 -66 10 -17 25 -62 33 -101 9
-39 24 -86 35 -104 11 -19 27 -63 36 -99 9 -35 27 -82 40 -105 13 -22 30 -65
39 -95 9 -30 28 -72 42 -93 14 -22 34 -62 44 -91 44 -124 217 -478 271 -550
16 -22 29 -44 29 -49 0 -6 14 -28 30 -51 46 -62 117 -171 139 -214 30 -59 100
-162 111 -162 5 0 11 -9 15 -19 6 -20 75 -130 122 -195 39 -55 73 -105 108
-161 17 -26 57 -81 90 -121 33 -40 85 -103 115 -140 81 -100 215 -251 284
-319 66 -66 112 -91 150 -81 33 8 273 246 281 279 12 47 -33 116 -179 270 -32
34 -66 78 -75 97 -18 40 -35 64 -108 158 -29 37 -66 85 -83 107 -17 22 -49 63
-71 90 -22 28 -49 66 -59 85 -10 19 -51 70 -89 113 -39 43 -71 81 -71 85 0 8
-61 94 -111 154 -16 21 -36 52 -44 70 -8 18 -23 47 -35 63 -11 17 -25 48 -31
70 -6 22 -17 47 -24 55 -15 17 -149 270 -196 370 -16 36 -41 88 -54 115 -47
95 -88 200 -101 258 -8 31 -25 74 -38 95 -13 20 -27 55 -31 77 -4 22 -21 76
-39 120 -18 44 -39 103 -46 130 -7 28 -23 68 -35 90 -12 22 -28 65 -35 95 -7
30 -30 87 -50 125 -20 39 -44 102 -54 140 -9 39 -28 106 -41 150 -14 44 -29
112 -35 152 -5 39 -19 95 -30 123 -11 28 -27 104 -35 168 -17 133 -54 241 -97
287 l-28 30 -158 2 c-86 1 -172 -2 -189 -8z" id="orange8"/>
    <path d="M16975 9240 c-64 -10 -85 -27 -115 -93 -30 -66 -84 -253 -95 -327 -4
-25 -17 -72 -30 -105 -13 -33 -26 -94 -30 -135 -3 -41 -15 -95 -26 -119 -10
-24 -19 -55 -19 -70 0 -15 -9 -56 -19 -91 -56 -191 -104 -339 -120 -370 -11
-20 -24 -56 -31 -80 -6 -25 -29 -83 -50 -130 -21 -47 -53 -116 -70 -155 -18
-38 -38 -94 -46 -124 -8 -30 -23 -69 -33 -85 -11 -17 -31 -60 -46 -96 -15 -35
-39 -83 -54 -105 -16 -22 -40 -65 -55 -95 -15 -30 -36 -73 -48 -95 -35 -67
-50 -97 -84 -165 -17 -36 -39 -72 -48 -79 -9 -8 -25 -33 -35 -57 -11 -24 -31
-58 -44 -76 -13 -18 -27 -45 -31 -60 -3 -14 -17 -40 -31 -56 -14 -17 -32 -47
-41 -69 -16 -39 -55 -96 -109 -161 -17 -21 -37 -47 -45 -58 -32 -46 -99 -131
-128 -162 -17 -18 -49 -61 -71 -95 -22 -34 -49 -74 -61 -89 -38 -50 -80 -140
-80 -173 0 -28 12 -47 68 -108 37 -40 88 -97 113 -125 41 -47 50 -52 87 -52
22 0 52 4 67 10 35 13 213 193 258 260 20 30 57 84 82 120 52 73 104 148 140
200 13 19 35 49 48 65 13 17 34 48 45 71 11 22 28 47 37 54 9 8 30 39 46 69
16 31 37 67 48 81 10 14 31 47 47 73 16 27 43 72 61 100 45 75 223 405 223
415 0 5 15 38 34 73 18 35 41 88 50 116 10 29 21 55 26 58 5 3 16 29 26 58 9
28 33 86 54 127 20 41 42 97 49 124 7 27 20 65 30 85 11 20 27 68 36 106 10
39 26 84 36 101 11 17 30 65 42 105 13 41 31 88 40 105 9 17 26 69 37 115 11
46 31 113 44 149 13 36 30 106 39 155 8 50 19 104 25 120 6 17 23 84 37 150
14 66 33 145 41 175 30 108 32 127 36 255 l3 130 -39 19 c-31 15 -64 20 -160
21 -67 1 -139 -1 -161 -5z" id="orange9"/>
    <path d="M15170 8833 c-68 -24 -179 -79 -237 -116 -65 -42 -243 -223 -243
-247 0 -5 -9 -19 -20 -30 -16 -16 -34 -20 -87 -21 -38 0 -90 -4 -118 -9 -27
-5 -331 -12 -675 -15 -678 -5 -813 -10 -893 -27 -108 -23 -159 -77 -294 -317
-17 -31 -32 -65 -32 -77 -1 -24 22 -48 59 -60 14 -5 471 -9 1015 -9 545 0 997
-4 1006 -8 9 -5 25 -27 35 -49 10 -23 33 -59 51 -81 18 -21 33 -44 33 -50 0
-12 71 -78 139 -129 98 -75 281 -138 399 -138 61 0 229 33 267 52 17 8 48 21
70 28 118 38 297 241 350 395 13 38 35 180 35 225 0 218 -114 449 -284 576
-54 40 -88 56 -174 82 -99 30 -117 32 -247 31 -77 0 -147 -3 -155 -6z m271
-441 c60 -39 91 -78 119 -151 l23 -62 -22 -72 c-14 -47 -32 -83 -54 -105 -52
-55 -75 -62 -191 -62 l-106 0 -41 37 c-42 38 -99 137 -99 172 0 38 41 151 66
180 14 17 53 44 87 61 85 41 155 41 218 2z" id="orange10"/>
    <path d="M612 8813 c-56 -27 -67 -55 -67 -163 1 -60 7 -116 18 -151 9 -31 22
-101 27 -155 6 -55 23 -146 40 -204 16 -58 34 -141 40 -185 6 -44 23 -105 37
-135 13 -30 31 -88 39 -128 7 -40 23 -90 34 -112 11 -22 28 -75 36 -118 9 -42
32 -108 50 -147 19 -38 34 -79 34 -91 0 -12 15 -50 34 -85 18 -35 39 -93 45
-129 7 -35 22 -82 33 -104 11 -22 29 -72 40 -110 11 -39 28 -85 39 -103 11
-18 28 -63 39 -100 10 -38 30 -88 43 -113 14 -25 33 -70 42 -100 10 -30 24
-65 32 -76 14 -21 66 -140 105 -239 11 -27 28 -59 38 -70 10 -11 32 -50 48
-86 17 -37 35 -70 40 -73 6 -4 20 -32 32 -64 12 -31 30 -66 40 -77 11 -11 26
-38 36 -60 9 -22 26 -53 39 -70 12 -16 31 -48 43 -71 11 -22 28 -47 37 -54 9
-8 32 -43 51 -79 45 -86 91 -161 115 -186 10 -12 24 -36 30 -55 21 -58 220
-353 315 -466 29 -33 60 -76 69 -95 10 -19 27 -45 39 -59 12 -14 29 -35 37
-46 8 -12 46 -60 86 -105 40 -46 87 -101 105 -123 18 -21 66 -73 106 -116 40
-42 80 -88 89 -101 45 -65 182 -217 319 -353 83 -83 173 -176 200 -206 26 -30
84 -88 128 -129 101 -92 456 -400 531 -461 31 -25 71 -57 88 -71 18 -15 49
-34 70 -43 43 -17 72 -38 156 -111 32 -27 73 -59 91 -70 78 -47 99 -62 127
-90 30 -30 87 -73 149 -111 19 -11 44 -30 56 -41 13 -12 61 -44 108 -71 47
-28 105 -63 130 -79 25 -15 63 -36 85 -46 22 -10 49 -26 60 -36 24 -21 195
-116 350 -194 22 -11 51 -27 65 -37 14 -9 47 -24 73 -33 27 -9 64 -30 83 -46
18 -17 51 -35 71 -41 21 -5 58 -24 82 -40 24 -17 49 -30 54 -30 10 0 147 -60
272 -120 33 -16 76 -32 95 -36 19 -3 60 -19 90 -34 31 -16 76 -33 100 -40 25
-7 63 -21 85 -33 22 -11 76 -31 120 -43 44 -13 139 -44 210 -69 72 -26 164
-58 205 -72 41 -14 114 -40 161 -58 48 -19 119 -42 159 -51 39 -9 107 -29 150
-45 112 -41 377 -99 501 -110 58 -5 126 -16 150 -25 41 -15 116 -22 434 -40
l120 -7 32 30 c25 24 32 40 38 86 7 58 0 181 -15 251 -17 76 -109 138 -231
156 -94 14 -159 27 -234 50 -33 10 -96 21 -140 25 -44 4 -96 16 -115 25 -20
10 -54 21 -75 25 -90 14 -272 58 -298 72 -16 8 -66 20 -111 28 -46 7 -100 22
-122 33 -21 11 -59 23 -84 27 -61 9 -123 28 -195 57 -33 14 -85 31 -115 38
-30 7 -80 25 -111 41 -30 15 -84 33 -120 39 -36 6 -80 22 -101 36 -20 14 -61
31 -92 38 -31 8 -73 25 -94 39 -20 14 -63 32 -95 41 -33 8 -75 26 -95 40 -21
13 -57 30 -82 36 -25 6 -61 22 -80 35 -19 14 -61 33 -93 44 -32 11 -72 32 -88
46 -17 14 -37 25 -45 25 -13 0 -162 70 -224 105 -14 8 -61 33 -105 55 -44 23
-105 56 -136 73 -31 18 -81 45 -110 61 -30 16 -70 42 -89 57 -19 16 -40 29
-46 29 -7 0 -35 15 -63 34 -28 19 -85 53 -126 76 -42 23 -96 57 -119 75 -24
18 -54 38 -67 45 -13 7 -37 25 -54 41 -16 15 -48 35 -70 45 -39 16 -67 36
-150 109 -80 71 -137 116 -164 130 -15 7 -44 29 -63 47 -50 48 -109 98 -165
140 -26 21 -68 54 -92 73 -24 20 -53 41 -65 47 -12 6 -35 25 -52 42 -18 17
-53 47 -78 66 -126 95 -380 339 -499 481 -79 93 -111 130 -147 167 -19 21 -90
100 -158 177 -67 77 -141 160 -163 185 -22 25 -57 66 -77 91 -36 45 -47 62
-102 154 -14 23 -38 57 -53 76 -16 19 -39 50 -52 69 -13 19 -46 66 -72 104
-26 38 -57 83 -68 101 -23 35 -55 79 -101 133 -17 20 -41 55 -52 78 -11 22
-28 46 -37 54 -9 8 -26 32 -37 54 -11 22 -35 61 -52 88 -64 96 -86 137 -101
179 -9 24 -27 56 -41 70 -14 15 -30 46 -35 70 -6 25 -23 57 -39 74 -16 17 -36
47 -45 69 -9 21 -27 55 -40 75 -13 20 -29 56 -35 80 -7 25 -23 61 -36 80 -13
20 -31 58 -40 85 -9 27 -25 63 -35 80 -10 17 -27 60 -39 96 -11 36 -33 84 -49
108 -17 25 -32 63 -36 91 -4 28 -17 64 -31 83 -14 18 -31 55 -39 82 -8 27 -28
73 -45 102 -16 29 -35 75 -40 101 -6 26 -22 64 -36 84 -14 21 -32 65 -40 98
-7 34 -23 80 -35 102 -11 22 -29 82 -40 132 -11 51 -31 110 -44 132 -12 22
-26 67 -30 100 -4 33 -18 86 -31 118 -14 32 -34 113 -45 180 -11 67 -31 149
-44 182 -15 37 -29 97 -35 155 -8 85 -15 108 -61 200 -77 158 -93 171 -241
195 -117 19 -145 19 -186 -2z" id="orange11"/>
  </g>
  <g transform="translate(0.000000,2048.000000) scale(0.100000,-0.100000)" fill="url(#cool-drift)" stroke="none">
    <path d="M8760 19334 c-83 -5 -213 -25 -227 -36 -18 -14 -9 -25 41 -47 54 -23
61 -44 42 -115 -14 -54 -14 -119 0 -199 6 -37 4 -41 -45 -86 -56 -52 -55 -74
4 -64 43 7 72 -21 80 -79 13 -90 21 -334 13 -359 -11 -32 -59 -55 -140 -69
-32 -6 -84 -14 -115 -20 -32 -5 -73 -10 -91 -10 -19 0 -64 -13 -100 -29 -45
-19 -92 -30 -144 -35 -42 -3 -101 -15 -130 -26 -54 -21 -64 -24 -243 -55 -55
-10 -121 -28 -146 -40 -25 -13 -78 -28 -117 -33 -45 -7 -89 -20 -117 -36 -24
-15 -66 -29 -92 -33 -26 -3 -93 -23 -149 -43 -55 -21 -120 -41 -145 -45 -24
-4 -73 -20 -109 -35 -36 -15 -90 -33 -120 -40 -30 -7 -77 -25 -105 -41 -27
-15 -66 -30 -85 -34 -19 -4 -64 -22 -100 -40 -36 -18 -76 -36 -90 -40 -14 -4
-46 -20 -71 -36 -25 -16 -66 -35 -92 -43 -25 -7 -59 -23 -75 -34 -16 -12 -54
-31 -85 -42 -31 -12 -59 -26 -63 -32 -3 -5 -34 -23 -68 -39 -33 -16 -90 -46
-126 -67 -36 -20 -90 -50 -119 -67 -30 -16 -68 -42 -86 -58 -18 -15 -52 -34
-75 -42 -23 -8 -57 -28 -75 -44 -19 -16 -44 -32 -57 -36 -13 -4 -34 -18 -48
-31 -14 -12 -41 -30 -61 -38 -20 -8 -50 -26 -65 -39 -16 -13 -42 -31 -59 -40
-35 -17 -124 -75 -175 -112 -19 -14 -57 -41 -85 -60 -178 -123 -185 -129 -292
-220 -45 -38 -106 -89 -135 -112 -60 -48 -187 -156 -205 -175 -7 -7 -52 -49
-99 -93 -250 -232 -647 -642 -784 -810 -30 -37 -86 -105 -125 -151 -38 -46
-88 -106 -110 -134 -22 -28 -51 -63 -65 -79 -24 -27 -58 -78 -110 -167 -14
-24 -35 -54 -47 -66 -11 -13 -30 -42 -41 -64 -12 -23 -33 -55 -47 -72 -14 -16
-25 -35 -25 -41 0 -5 -13 -25 -29 -43 -15 -18 -38 -51 -50 -73 -33 -60 -87
-147 -109 -175 -10 -14 -29 -45 -42 -70 -12 -25 -29 -52 -36 -61 -8 -9 -27
-43 -44 -76 -16 -34 -34 -64 -40 -68 -6 -3 -23 -35 -39 -69 -16 -35 -33 -66
-39 -70 -6 -3 -20 -32 -32 -63 -11 -31 -30 -69 -41 -84 -11 -15 -26 -47 -34
-71 -8 -24 -28 -70 -45 -103 -38 -78 -106 -233 -115 -265 -4 -14 -20 -50 -35
-80 -15 -30 -33 -80 -40 -110 -7 -30 -22 -73 -33 -95 -27 -54 -70 -184 -112
-335 -19 -69 -45 -156 -59 -195 -14 -38 -26 -83 -26 -100 0 -16 -11 -54 -25
-82 -13 -29 -36 -113 -50 -187 -14 -74 -34 -163 -46 -198 -11 -34 -27 -109
-35 -166 -8 -57 -23 -129 -33 -160 -11 -31 -24 -111 -30 -177 -6 -66 -18 -190
-26 -275 -17 -180 -19 -288 -5 -324 5 -14 21 -33 36 -43 24 -16 64 -17 434
-20 310 -2 421 -6 468 -17 52 -12 63 -12 72 0 9 10 5 18 -22 34 -18 11 -36 20
-39 20 -16 0 -28 65 -38 197 -9 120 -8 149 4 184 22 60 6 76 -42 43 -34 -23
-44 -24 -185 -24 -145 0 -150 1 -173 25 -14 13 -25 30 -25 37 0 103 24 288 44
341 12 34 26 94 30 132 9 90 44 277 62 328 8 21 21 81 29 132 9 56 25 113 40
141 14 26 25 57 25 69 0 36 100 322 129 368 11 18 25 55 32 82 6 28 23 68 36
91 13 23 34 72 47 110 13 38 36 94 50 124 14 30 26 62 26 71 0 9 13 41 29 71
16 29 36 78 45 107 9 30 27 73 41 96 13 23 34 67 45 98 11 30 27 60 35 67 8 7
24 37 35 68 12 32 30 66 40 77 10 11 30 45 44 75 35 72 112 209 130 229 7 9
22 32 31 51 10 19 27 47 39 61 12 15 29 39 38 55 9 16 38 56 63 89 25 33 61
83 80 110 19 28 55 77 79 110 25 33 61 83 81 110 19 28 51 70 70 95 20 25 48
64 63 88 88 140 300 384 481 556 69 65 133 126 142 135 107 108 416 399 439
413 17 10 33 25 37 33 3 9 20 23 37 32 17 9 45 28 63 42 41 33 103 78 163 116
93 59 159 105 165 115 3 6 30 26 58 45 29 19 72 51 97 70 25 19 65 49 90 67
25 17 61 45 82 62 43 37 84 64 158 106 30 17 84 49 120 70 36 21 94 55 130 75
36 20 99 56 140 80 94 55 262 140 315 158 22 8 58 26 79 41 21 14 44 26 50 26
6 0 49 18 95 40 91 42 116 41 125 -3 3 -12 8 -1721 11 -3797 8 -5110 13 -6210
26 -6227 26 -31 81 3 136 83 87 126 179 238 232 278 52 40 59 50 64 88 2 24 5
1596 6 3493 0 1898 1 4078 1 4845 1 1328 3 1439 29 1479 9 14 154 68 286 105
44 13 101 33 127 44 27 12 96 31 155 42 60 11 146 31 193 45 47 13 116 29 153
35 38 6 92 20 120 31 29 11 99 26 157 34 58 9 128 22 155 30 91 26 278 55 417
65 157 11 203 24 232 63 21 28 21 34 21 697 l0 668 -24 26 c-24 26 -27 26
-155 24 -72 -1 -156 -3 -186 -4z" id="blue0"/>
    <path d="M10653 18330 c-12 -5 -27 -18 -32 -29 -8 -14 -11 -215 -11 -640 1
-504 3 -621 14 -630 21 -18 33 6 35 73 3 71 25 132 55 148 25 14 219 34 366
37 58 1 109 6 114 11 6 6 16 5 25 -4 23 -20 77 -34 156 -42 56 -5 73 -3 83 9
10 11 9 17 -2 26 -18 15 -218 41 -232 30 -7 -6 -16 -4 -24 6 -7 8 -27 15 -46
15 -38 0 -85 16 -96 33 -4 7 -8 101 -8 209 0 236 -2 232 99 225 119 -7 406
-56 451 -76 25 -11 87 -27 138 -35 52 -9 106 -23 120 -30 26 -13 151 -45 237
-61 21 -4 56 -15 77 -26 21 -11 71 -27 111 -36 39 -9 92 -26 118 -39 25 -12
63 -25 85 -29 21 -4 73 -22 114 -40 78 -35 95 -42 353 -146 28 -12 90 -36 137
-54 47 -18 120 -46 162 -63 43 -16 95 -40 115 -52 21 -13 62 -31 91 -41 29
-10 66 -27 82 -39 16 -11 47 -27 70 -35 23 -8 61 -27 84 -41 101 -63 154 -94
196 -114 24 -11 51 -27 60 -35 8 -7 44 -29 80 -47 164 -87 231 -130 525 -343
53 -38 113 -81 134 -94 124 -84 238 -159 270 -181 101 -66 217 -176 726 -686
384 -385 380 -380 607 -683 126 -167 174 -234 243 -338 19 -28 39 -55 45 -58
6 -4 22 -30 36 -58 15 -29 33 -60 42 -70 18 -20 77 -122 122 -212 17 -33 50
-94 75 -135 52 -90 165 -314 165 -327 0 -6 9 -22 20 -36 11 -14 27 -45 35 -69
8 -24 33 -79 54 -123 22 -44 54 -114 72 -155 17 -41 45 -104 62 -140 16 -36
42 -99 57 -140 101 -274 125 -344 147 -420 14 -47 35 -110 48 -140 13 -30 29
-83 35 -117 6 -34 19 -87 30 -119 11 -31 32 -122 46 -202 14 -80 34 -168 46
-196 11 -28 26 -103 34 -167 8 -64 23 -143 34 -175 11 -32 27 -121 36 -199 8
-77 19 -158 24 -180 4 -22 11 -69 15 -105 8 -74 17 -95 46 -111 27 -14 1255
-14 1292 0 51 20 57 43 54 212 -1 85 -6 159 -10 166 -5 9 -18 5 -45 -14 -36
-24 -41 -25 -139 -19 -182 12 -273 38 -307 91 -16 24 -1 23 -265 6 -87 -6
-161 -6 -170 -1 -39 20 -55 52 -67 133 -7 45 -20 131 -29 192 -9 60 -25 130
-35 156 -10 25 -24 83 -30 129 -6 45 -20 110 -30 144 -11 34 -33 130 -49 213
-16 83 -39 169 -50 191 -11 22 -25 67 -30 100 -5 33 -20 82 -34 108 -13 27
-32 83 -42 124 -10 41 -28 95 -40 120 -12 25 -28 70 -35 100 -7 30 -25 80 -40
110 -15 30 -32 77 -39 104 -7 27 -22 69 -35 95 -13 25 -31 71 -41 101 -10 30
-28 71 -41 90 -12 19 -30 61 -39 92 -9 31 -25 68 -36 82 -11 14 -29 51 -39 82
-11 31 -28 70 -39 88 -11 17 -29 56 -40 87 -12 31 -30 64 -41 74 -10 9 -26 39
-35 65 -9 27 -23 54 -31 61 -9 7 -26 33 -39 58 -27 55 -85 145 -118 186 -14
17 -32 48 -41 70 -9 22 -25 49 -35 60 -10 11 -26 36 -36 55 -9 19 -28 46 -41
60 -12 14 -30 41 -38 61 -8 20 -26 50 -39 65 -13 16 -34 48 -45 71 -12 23 -26
45 -32 48 -6 3 -20 25 -31 48 -12 23 -36 59 -53 79 -68 82 -92 113 -111 144
-11 18 -47 65 -80 104 -33 40 -67 83 -76 96 -16 25 -49 62 -109 123 -53 53
-182 201 -211 241 -15 19 -91 104 -169 188 -129 137 -208 210 -303 280 -17 13
-87 71 -154 130 -67 59 -145 125 -174 147 -28 22 -109 90 -180 150 -174 149
-327 265 -349 265 -5 0 -24 13 -42 29 -18 15 -52 38 -75 50 -23 11 -45 25 -48
31 -4 6 -32 23 -64 39 -31 16 -63 37 -71 46 -8 9 -39 30 -69 46 -99 53 -150
84 -173 106 -13 12 -41 29 -63 38 -22 9 -51 27 -65 39 -14 13 -41 32 -60 41
-19 10 -44 26 -55 36 -11 10 -38 25 -60 34 -22 9 -51 27 -65 40 -14 13 -47 32
-75 43 -27 10 -68 31 -89 45 -21 15 -44 27 -50 27 -6 0 -42 15 -81 34 -153 74
-242 115 -280 126 -22 7 -56 21 -75 31 -19 10 -64 29 -100 43 -36 13 -87 33
-115 44 -67 27 -218 78 -335 112 -52 15 -126 40 -165 54 -38 14 -80 26 -91 26
-12 0 -48 14 -79 30 -34 18 -86 35 -129 41 -39 6 -87 20 -106 31 -20 11 -100
33 -185 49 -82 16 -170 38 -195 48 -25 11 -90 24 -145 29 -68 7 -118 18 -155
35 -32 15 -84 28 -125 31 -38 4 -128 15 -200 26 -186 28 -437 60 -460 59 -11
0 -30 -4 -42 -9z" id="blue1"/>
    <path d="M8954 17400 c-79 -24 -60 -64 22 -47 97 20 137 -15 150 -129 7 -70
23 -94 44 -69 11 13 11 35 3 107 -14 118 -33 141 -125 145 -35 1 -77 -2 -94
-7z" id="blue2"/>
    <path d="M13301 15396 c-9 -10 2 -23 47 -59 69 -54 118 -119 105 -141 -4 -8
-27 -29 -51 -46 -33 -23 -41 -34 -33 -44 8 -10 23 -7 71 16 56 27 90 59 90 84
0 22 -75 106 -116 130 -23 14 -48 32 -55 40 -22 26 -46 35 -58 20z" id="blue3"/>
    <path d="M12019 13916 c-35 -18 -83 -37 -106 -41 -58 -9 -77 -33 -70 -91 6
-56 28 -80 84 -92 32 -7 45 -7 53 3 9 11 6 17 -13 29 -33 23 -50 62 -36 87 5
11 43 35 82 53 83 38 105 57 84 75 -11 8 -29 3 -78 -23z" id="blue4"/>
    <path d="M11591 13176 c-10 -12 -1 -22 53 -56 91 -57 94 -67 45 -121 -34 -37
-37 -45 -25 -58 13 -12 22 -9 71 23 64 43 78 69 64 119 -12 46 -38 67 -101 82
-29 7 -62 15 -74 19 -13 4 -26 1 -33 -8z" id="blue5"/>
    <path d="M4367 12089 c-21 -5 -52 -16 -69 -25 -17 -9 -55 -25 -85 -35 -71 -24
-163 -83 -227 -144 -66 -63 -141 -177 -155 -235 -7 -25 -21 -66 -31 -92 -32
-76 -28 -212 11 -335 16 -54 40 -116 51 -138 12 -22 32 -60 44 -84 24 -45 107
-136 166 -182 18 -15 57 -38 86 -53 81 -41 90 -69 91 -283 2 -161 0 -174 -19
-193 -11 -11 -26 -20 -34 -20 -7 0 -19 -6 -26 -14 -9 -12 -4 -19 29 -40 52
-33 79 -87 91 -183 15 -116 4 -161 -57 -224 -33 -35 -34 -37 -16 -50 11 -8 24
-22 29 -31 5 -10 7 -176 4 -405 -6 -428 -5 -424 -70 -458 -49 -25 -130 -87
-190 -145 -83 -80 -137 -175 -166 -292 -32 -131 -31 -208 6 -351 38 -144 91
-237 201 -348 67 -67 94 -87 176 -125 199 -94 407 -86 615 23 175 92 306 273
349 481 10 52 19 117 19 146 -1 83 -35 215 -81 306 -35 71 -59 102 -141 183
-76 76 -114 105 -163 127 -35 16 -68 37 -74 48 -7 13 -11 304 -11 897 -1 994
-9 909 85 950 29 13 56 29 60 35 3 6 30 28 60 50 97 72 202 237 241 382 33
120 13 391 -33 456 -10 13 -27 39 -38 57 -89 145 -204 245 -333 290 -37 13
-92 33 -122 44 -60 22 -200 27 -273 10z m247 -470 c55 -23 61 -28 94 -92 31
-59 36 -78 36 -135 0 -59 -5 -75 -40 -136 -37 -65 -43 -71 -104 -97 -36 -16
-84 -28 -107 -29 -61 0 -155 44 -192 90 -42 53 -51 80 -51 158 0 81 11 123 42
161 13 16 28 36 33 45 6 9 39 28 75 41 78 30 130 28 214 -6z m2 -3139 c63 -28
64 -30 100 -107 42 -90 56 -192 33 -234 -62 -110 -152 -169 -257 -169 -144 0
-262 124 -262 274 0 75 15 118 61 170 45 51 59 60 134 88 61 22 104 18 191
-22z" id="blue6"/>
    <path d="M1520 9289 c-63 -5 -303 -12 -532 -16 l-416 -8 -27 -25 c-23 -22 -26
-31 -21 -65 13 -85 24 -282 19 -322 -9 -66 7 -76 66 -44 l49 26 118 -17 c95
-14 127 -23 165 -47 51 -31 59 -29 73 17 4 12 13 22 19 23 56 5 410 -4 439
-12 46 -12 54 -26 74 -131 8 -46 24 -108 34 -139 11 -32 26 -102 34 -157 8
-54 22 -117 30 -138 8 -22 27 -91 41 -154 15 -63 39 -147 54 -185 16 -39 32
-90 36 -115 4 -25 18 -65 30 -90 12 -25 28 -72 35 -105 7 -33 25 -94 40 -135
15 -41 40 -111 55 -155 57 -170 83 -241 102 -280 11 -22 26 -58 33 -80 7 -22
32 -80 55 -130 94 -196 136 -282 155 -315 11 -19 29 -55 40 -80 11 -25 38 -76
60 -115 21 -38 53 -99 70 -135 17 -36 42 -76 55 -90 13 -14 33 -46 44 -71 10
-26 24 -50 30 -54 6 -3 22 -28 35 -54 14 -26 32 -54 42 -61 9 -8 25 -35 36
-59 10 -24 31 -59 46 -77 15 -18 41 -53 57 -79 36 -56 71 -109 106 -161 15
-22 53 -79 85 -127 93 -140 96 -144 152 -220 102 -141 118 -161 167 -220 28
-33 65 -81 84 -106 19 -25 118 -129 219 -231 102 -102 202 -206 223 -232 20
-26 108 -111 194 -189 86 -78 163 -152 172 -166 14 -22 152 -141 258 -223 111
-87 220 -167 251 -186 19 -11 49 -34 67 -51 18 -16 61 -51 97 -77 36 -26 83
-60 105 -76 62 -46 272 -182 350 -227 39 -22 104 -59 145 -83 41 -23 100 -58
132 -76 31 -19 59 -34 63 -34 4 0 57 -31 119 -69 61 -38 131 -79 156 -91 25
-12 52 -28 60 -35 34 -29 275 -142 438 -205 40 -16 78 -33 85 -38 7 -5 30 -15
52 -22 22 -7 70 -28 106 -46 37 -19 72 -34 79 -34 7 0 47 -16 90 -35 42 -19
115 -46 161 -59 46 -14 122 -36 169 -50 125 -36 239 -64 332 -82 45 -8 116
-26 157 -39 42 -13 109 -31 148 -39 40 -9 94 -27 120 -40 27 -14 91 -32 143
-41 107 -19 132 -24 245 -54 44 -12 138 -26 209 -32 70 -5 137 -14 147 -20 43
-23 52 -64 59 -269 4 -107 3 -203 -2 -212 -5 -10 -21 -21 -36 -24 -53 -13 -55
-23 -13 -69 32 -35 41 -53 48 -101 12 -88 10 -255 -4 -280 -20 -35 2 -43 114
-43 56 0 122 -5 146 -11 68 -18 127 -10 148 20 17 23 19 69 27 660 5 357 5
648 1 666 -17 60 -32 65 -221 80 -95 8 -204 18 -243 23 -38 6 -100 13 -137 16
-36 4 -88 13 -115 21 -26 8 -92 19 -147 25 -67 7 -113 17 -145 33 -25 13 -75
27 -111 31 -36 4 -117 23 -180 42 -63 18 -148 40 -188 48 -41 8 -88 23 -105
34 -18 11 -69 26 -114 35 -45 8 -117 29 -160 45 -43 16 -104 34 -136 40 -31 6
-76 22 -100 35 -23 14 -74 32 -114 41 -40 9 -83 25 -96 35 -13 11 -49 29 -80
40 -30 11 -66 29 -79 39 -13 10 -51 26 -85 36 -35 10 -77 28 -95 42 -18 13
-56 31 -85 39 -28 8 -63 24 -77 35 -13 11 -44 26 -67 35 -24 8 -64 27 -89 43
-25 16 -61 34 -80 40 -19 6 -57 27 -84 46 -27 19 -55 35 -62 35 -7 0 -26 11
-42 25 -16 13 -51 34 -77 45 -26 11 -59 29 -73 40 -14 11 -46 30 -71 41 -25
11 -54 27 -64 37 -22 20 -109 70 -182 106 -28 13 -57 31 -65 41 -7 9 -35 27
-60 40 -25 13 -52 31 -60 40 -7 9 -30 25 -50 35 -20 10 -53 34 -72 52 -19 18
-57 49 -83 68 -26 19 -90 70 -141 112 -51 42 -105 84 -121 92 -35 18 -426 370
-548 492 -123 123 -371 385 -490 519 -54 61 -106 119 -116 130 -37 41 -86 101
-112 140 -15 22 -48 67 -72 100 -25 33 -53 73 -63 89 -9 16 -29 43 -43 60 -15
17 -36 49 -47 72 -11 22 -28 47 -37 54 -9 8 -28 34 -41 59 -13 25 -47 75 -74
111 -27 36 -61 86 -74 111 -13 25 -32 51 -41 59 -9 8 -28 37 -42 64 -14 28
-36 64 -49 79 -13 16 -24 34 -24 41 0 8 -18 40 -40 72 -22 33 -40 64 -40 69 0
6 -16 35 -35 65 -19 29 -42 75 -50 101 -9 26 -22 53 -30 59 -8 6 -21 35 -31
63 -9 29 -32 80 -50 114 -19 34 -34 68 -34 76 0 8 -15 46 -34 83 -33 65 -53
112 -111 257 -14 34 -38 89 -55 122 -16 33 -34 78 -41 100 -6 22 -22 60 -34
85 -13 25 -31 72 -40 104 -9 32 -28 81 -41 110 -13 28 -30 81 -37 116 -8 36
-26 88 -40 117 -15 29 -27 65 -27 80 0 16 -9 60 -21 98 -44 146 -58 207 -69
287 -6 45 -22 108 -36 140 -14 35 -28 95 -34 155 -6 54 -20 126 -31 159 -12
38 -25 123 -33 221 -7 88 -19 170 -25 182 -7 12 -27 31 -44 41 -36 22 -140 25
-357 9z" id="blue7"/>
    <path d="M17259 9264 c-11 -13 4 -28 39 -38 39 -12 43 -35 33 -190 -5 -79 -12
-149 -15 -155 -12 -19 18 -23 209 -21 183 1 195 0 215 -20 25 -25 25 -36 0
-93 -12 -27 -26 -94 -34 -159 -8 -71 -21 -132 -35 -163 -12 -27 -29 -93 -38
-145 -8 -52 -30 -138 -48 -191 -18 -52 -36 -115 -40 -140 -3 -24 -17 -66 -30
-94 -13 -27 -30 -77 -39 -110 -23 -91 -100 -312 -124 -353 -11 -20 -28 -62
-37 -94 -9 -31 -22 -62 -30 -68 -8 -6 -22 -35 -31 -63 -9 -29 -34 -85 -55
-125 -22 -41 -39 -81 -39 -89 0 -9 -11 -36 -25 -60 -15 -24 -37 -73 -51 -109
-13 -36 -31 -75 -39 -88 -8 -12 -24 -49 -35 -81 -11 -32 -27 -66 -36 -76 -8
-9 -24 -41 -35 -70 -11 -30 -30 -64 -42 -77 -12 -12 -33 -42 -47 -66 -42 -71
-64 -107 -87 -140 -12 -17 -38 -61 -57 -97 -19 -36 -42 -71 -51 -79 -9 -8 -28
-34 -41 -59 -14 -25 -45 -73 -69 -106 -25 -33 -54 -78 -66 -100 -12 -22 -34
-56 -49 -75 -15 -19 -35 -50 -45 -69 -10 -19 -26 -42 -36 -50 -20 -18 -80
-101 -105 -146 -9 -16 -33 -49 -53 -72 -20 -23 -52 -63 -71 -88 -58 -76 -111
-136 -199 -225 -46 -47 -107 -112 -134 -145 -47 -57 -118 -135 -232 -255 -105
-110 -509 -476 -620 -560 -25 -19 -83 -67 -128 -106 -46 -40 -96 -80 -113 -90
-39 -24 -97 -70 -138 -110 -18 -18 -46 -39 -62 -47 -17 -9 -37 -23 -44 -32 -8
-9 -32 -26 -54 -37 -23 -11 -52 -31 -66 -44 -14 -12 -41 -30 -61 -38 -20 -8
-50 -26 -65 -39 -16 -13 -47 -34 -70 -45 -22 -11 -46 -28 -54 -37 -8 -9 -41
-30 -74 -46 -34 -16 -90 -47 -126 -69 -36 -22 -93 -53 -127 -70 -34 -17 -67
-38 -73 -45 -7 -8 -37 -24 -68 -35 -32 -12 -64 -28 -72 -35 -8 -8 -44 -27 -80
-43 -36 -16 -71 -36 -79 -46 -7 -9 -39 -23 -70 -32 -31 -9 -76 -27 -100 -41
-24 -14 -66 -31 -94 -39 -27 -7 -66 -25 -87 -39 -21 -15 -58 -31 -82 -36 -24
-6 -60 -21 -82 -35 -21 -14 -61 -33 -90 -41 -28 -8 -71 -25 -96 -38 -25 -13
-77 -31 -115 -40 -39 -10 -96 -28 -128 -42 -32 -13 -93 -31 -135 -39 -42 -9
-93 -25 -114 -35 -20 -10 -77 -27 -127 -38 -50 -11 -133 -33 -184 -49 -50 -17
-119 -33 -152 -37 -33 -4 -82 -17 -110 -30 -27 -13 -75 -27 -105 -30 -30 -4
-100 -17 -155 -30 -176 -40 -231 -48 -253 -36 -27 14 -41 -4 -40 -54 0 -22 -7
-78 -16 -124 -9 -46 -16 -107 -16 -137 0 -45 -5 -59 -30 -87 -42 -48 -26 -58
58 -36 37 10 141 25 232 33 125 12 207 26 340 60 96 24 186 49 200 55 14 6 72
22 129 36 57 15 116 32 130 39 14 7 44 16 66 20 22 4 76 17 120 30 44 13 136
35 205 50 69 15 150 36 180 47 30 11 80 27 109 36 30 8 75 25 101 38 25 13 66
28 90 35 25 6 74 26 110 44 36 18 83 39 105 46 22 7 52 21 67 32 15 10 53 28
85 39 32 11 74 30 93 44 19 13 54 31 78 39 24 9 54 24 67 34 13 10 45 27 72
37 26 10 57 25 68 35 11 9 79 46 150 82 72 36 157 81 190 100 131 76 254 152
334 204 26 18 70 44 97 59 82 44 139 79 170 103 86 67 134 101 162 116 28 14
83 57 217 169 22 19 54 42 70 52 17 11 48 35 71 55 23 19 65 52 95 73 102 73
334 281 519 468 114 115 443 469 488 524 21 28 87 104 146 170 59 66 125 145
147 175 21 30 59 80 83 110 39 47 81 107 222 314 12 17 29 37 38 45 9 8 25 32
35 55 10 23 33 63 52 88 44 61 90 134 110 178 9 19 29 50 43 69 14 19 26 40
26 46 0 7 14 31 31 55 17 24 38 59 46 78 8 20 25 50 38 66 34 46 170 315 190
377 10 30 30 79 46 109 16 30 35 75 44 100 9 24 22 54 29 65 7 11 23 47 36 80
13 33 37 84 52 114 15 29 28 59 28 67 0 8 13 43 28 77 16 34 39 96 51 137 13
41 32 92 42 112 11 21 26 68 35 105 8 38 25 84 36 103 11 19 31 76 43 125 13
50 36 137 53 195 17 58 34 125 37 150 4 24 16 63 26 87 10 24 25 83 34 131 8
48 24 110 34 138 11 28 33 124 50 215 17 90 40 196 50 234 11 39 20 90 20 114
1 24 6 73 12 108 13 76 7 107 -26 129 -21 14 -81 16 -496 17 -336 2 -473 -1
-480 -9z" id="blue8"/>
    <path d="M8019 6401 l-447 -6 -92 -89 c-153 -147 -228 -242 -216 -272 3 -8 22
-22 42 -30 30 -13 216 -16 1367 -20 733 -3 1841 -7 2462 -7 l1130 -2 51 -30
c29 -16 96 -72 150 -124 54 -52 116 -107 138 -123 31 -22 86 -83 86 -94 0 -2
-7 -10 -16 -18 -14 -14 -210 -16 -2008 -16 -1719 0 -1995 -2 -2005 -14 -10
-12 -8 -18 12 -31 42 -27 50 -62 45 -207 -4 -139 -10 -161 -56 -210 l-25 -27
37 -22 c20 -11 39 -31 42 -43 3 -13 7 -146 8 -297 2 -151 7 -524 11 -829 5
-306 5 -568 1 -583 -8 -34 -42 -43 -89 -23 -30 12 -38 12 -47 1 -9 -10 -1 -20
34 -44 52 -36 61 -59 71 -191 9 -114 -4 -160 -56 -202 -31 -25 -37 -34 -27
-44 12 -10 193 -28 423 -41 74 -4 82 -3 102 19 l22 24 1 1118 c1 760 4 1125
12 1141 5 12 22 28 37 35 20 10 375 12 1681 11 1941 -2 2679 -8 2773 -22 60
-10 70 -9 88 7 45 41 21 82 -130 215 -69 62 -130 120 -136 129 -5 9 -39 44
-74 76 -35 32 -131 124 -212 204 -81 80 -201 195 -265 255 -146 136 -173 162
-317 304 -84 81 -126 115 -149 120 -41 8 -3844 10 -4459 2z" id="blue9"/>
    <path d="M13031 4696 c-14 -16 0 -30 40 -40 37 -8 42 -29 14 -69 -43 -65 11
-69 82 -7 19 17 38 30 43 30 5 0 17 11 26 25 16 25 16 27 -6 50 -21 23 -31 25
-106 25 -57 0 -85 -4 -93 -14z" id="blue10"/>
  </g>
</svg>
